<svg xmlns="http://www.w3.org/2000/svg" viewBox="0 0 69.99 90.04"><defs><style>.cls-1{fill:#ff451b;}</style></defs><g id="Layer_2" data-name="Layer 2"><g id="Layer_1-2" data-name="Layer 1"><circle class="cls-1" cx="5" cy="5" r="5"/><circle class="cls-1" cx="25" cy="5" r="5"/><circle class="cls-1" cx="45" cy="5" r="5"/><circle class="cls-1" cx="64.99" cy="5" r="5"/><circle class="cls-1" cx="5" cy="25.02" r="5"/><circle class="cls-1" cx="25" cy="25.02" r="5"/><circle class="cls-1" cx="45" cy="25.02" r="5"/><circle class="cls-1" cx="64.99" cy="25.02" r="5"/><circle class="cls-1" cx="5" cy="45.02" r="5"/><circle class="cls-1" cx="25" cy="45.02" r="5"/><circle class="cls-1" cx="45" cy="45.02" r="5"/><circle class="cls-1" cx="64.99" cy="45.02" r="5"/><circle class="cls-1" cx="5" cy="65.04" r="5"/><circle class="cls-1" cx="25" cy="65.04" r="5"/><circle class="cls-1" cx="45" cy="65.04" r="5"/><circle class="cls-1" cx="64.99" cy="65.04" r="5"/><circle class="cls-1" cx="5" cy="85.04" r="5"/><circle class="cls-1" cx="25" cy="85.04" r="5"/><circle class="cls-1" cx="45" cy="85.04" r="5"/><circle class="cls-1" cx="64.99" cy="85.04" r="5"/></g></g></svg>