<svg id="regular" enable-background="new 0 0 24 24" height="512" viewBox="0 0 24 24" width="512" xmlns="http://www.w3.org/2000/svg"><path d="m23.653 13.033c-.525-1.305-2.064-2.448-3.834-2.473-.327-1.589-1.196-3.039-2.45-4.057-1.408-1.143-3.173-1.664-4.964-1.46-.379.042-.666.363-.666.745v12.458c0 .414.34.754.754.754h7.395c2.844 0 4.979-2.956 3.765-5.967zm-3.765 4.467h-6.648v-10.999c1.155.018 2.267.421 3.185 1.166 1.139.925 1.873 2.305 2.015 3.786.043.45.473.757.905.662 1.38-.299 2.599.686 2.919 1.479.81 2.016-.585 3.906-2.376 3.906z"/><path d="m10.305 18.25v-10.577c0-.992-1.5-.993-1.5 0v10.577c0 .992 1.5.993 1.5 0z"/><path d="m7.369 18.25v-7.692c0-.992-1.5-.993-1.5 0v7.692c0 .992 1.5.993 1.5 0z"/><path d="m4.435 18.25v-7.692c0-.992-1.5-.993-1.5 0v7.692c0 .992 1.5.993 1.5 0z"/><path d="m1.5 18.25v-5.769c0-.992-1.5-.993-1.5 0v5.769c0 .992 1.5.993 1.5 0z"/></svg>