<svg viewBox="0 -39 511.99926 511" xmlns="http://www.w3.org/2000/svg"><path d="m24.4375 147.40625c1.285156-.871094-4.65625 3.152344 12.566406-8.511719 11.886719-7.878906 22.414063-14.402343 30.835938-14.402343 2.226562 0 8.992187 0 16.636718 11.355468 21.097657 31.300782 34.304688 81.777344 47.097657 130.675782 14.429687 55.105468 29.347656 112.082031 55.765625 143.574218 12.578125 14.96875 28.539062 22.558594 47.433594 22.558594 25.109374 0 55.261718-13.527344 82.726562-37.117188 78.757812-67.648437 200.289062-213.992187 194.285156-317.59375-2.898437-50.011718-35.4375-77.445312-80.863281-77.445312-38.988281 0-79.652344 20.28125-103.601563 51.671875-19.675781 25.804687-23.996093 43.789063-32.894531 62.921875l26.808594-4.292969c4.1875-.671875 7.917969-1 11.40625-1 10.898437 0 19.308594 3.335938 25.71875 10.210938 6.542969 7 9.25 16.707031 8.273437 29.667969-3.148437 41.703124-45.382812 103.464843-72.320312 124.75-3.308594 2.617187-7.511719 4.179687-11.234375 4.179687-3.382813 0-12.371094 0-22.957031-26.707031-17.683594-44.597656-30.328125-150.195313-49.21875-207.960938-7.210938-22.023437-27.40625-36.253906-51.453125-36.253906-16.101563 0-32.667969 6.386719-47.898438 18.457031-68.265625 54.039063-82.914062 67.203125-111.550781 90.632813zm105.738281-97.75c9.882813-7.832031 20.003907-11.972656 29.273438-11.972656 11.007812 0 19.800781 5.976562 22.949219 15.585937 16.28125 49.789063 32.347656 165.574219 49.839843 209.6875 4.476563 11.292969 18.097657 45.644531 50.839844 45.644531 10.40625 0 21.28125-3.878906 29.835937-10.640624 31.480469-24.875 79.714844-94.128907 83.628907-146.027344 1.617187-21.492188-3.855469-39.121094-16.257813-52.386719-9.59375-10.296875-22.011718-16.722656-36.34375-18.90625 2.226563-3.453125 4.632813-6.871094 7.230469-10.277344 18.472656-24.21875 49.777344-39.871093 79.75-39.871093 21.929687 0 48.5625 8.535156 50.917969 49.183593 5.324218 91.855469-112.691406 231.960938-183.882813 293.109375-21.457031 18.425782-45.667969 29.875-63.183593 29.875-10.03125 0-17.578126-3.660156-24.464844-11.851562-22.078125-26.316406-36.128906-79.984375-49.738282-131.957032-13.40625-51.246093-27.269531-104.234374-51.214843-139.761718-11.484375-17.058594-24.914063-22.808594-35.664063-24.214844 19.792969-16.101562 39.238282-31.566406 56.484375-45.21875zm0 0"/></svg>